<svg width="153" height="66" viewBox="0 0 153 66" fill="none" xmlns="http://www.w3.org/2000/svg">
<mask id="path-1-outside-1_34_87" maskUnits="userSpaceOnUse" x="76.548" y="14" width="46" height="48" fill="black">
<rect fill="white" x="76.548" y="14" width="46" height="48"/>
<path d="M78.8917 61L95.3917 34.8438L93.2355 42.5V38.1875L78.9855 15.9062H90.0792L99.673 32.1562H104.017L97.8917 35.8125L109.548 15.9062H120.079L105.298 38.3438V42.6875L103.079 35.0312L119.892 61H109.142L99.2355 45.1875H94.8917L101.142 41.6562L89.0792 61H78.8917Z"/>
</mask>
<path d="M78.8917 61L95.3917 34.8438L93.2355 42.5V38.1875L78.9855 15.9062H90.0792L99.673 32.1562H104.017L97.8917 35.8125L109.548 15.9062H120.079L105.298 38.3438V42.6875L103.079 35.0312L119.892 61H109.142L99.2355 45.1875H94.8917L101.142 41.6562L89.0792 61H78.8917Z" fill="white"/>
<path d="M78.8917 61L78.0459 60.4665L77.0786 62H78.8917V61ZM95.3917 34.8438L96.3543 35.1148L94.5459 34.3102L95.3917 34.8438ZM93.2355 42.5H92.2355L94.198 42.7711L93.2355 42.5ZM93.2355 38.1875H94.2355V37.8951L94.0779 37.6487L93.2355 38.1875ZM78.9855 15.9062V14.9062H77.1589L78.143 16.445L78.9855 15.9062ZM90.0792 15.9062L90.9403 15.3979L90.6501 14.9062H90.0792V15.9062ZM99.673 32.1562L98.8118 32.6646L99.1021 33.1562H99.673V32.1562ZM104.017 32.1562L104.529 33.0149L107.643 31.1562H104.017V32.1562ZM97.8917 35.8125L97.0288 35.3072L98.4043 36.6712L97.8917 35.8125ZM109.548 15.9062V14.9062H108.975L108.685 15.4009L109.548 15.9062ZM120.079 15.9062L120.914 16.4564L121.935 14.9062H120.079V15.9062ZM105.298 38.3438L104.463 37.7936L104.298 38.044V38.3438H105.298ZM105.298 42.6875L104.337 42.9658L106.298 42.6875H105.298ZM103.079 35.0312L103.919 34.4878L102.119 35.3096L103.079 35.0312ZM119.892 61V62H121.73L120.731 60.4565L119.892 61ZM109.142 61L108.294 61.5309L108.588 62H109.142V61ZM99.2355 45.1875L100.083 44.6566L99.789 44.1875H99.2355V45.1875ZM94.8917 45.1875L94.3998 44.3169L91.0889 46.1875H94.8917V45.1875ZM101.142 41.6562L101.99 42.1854L100.65 40.7856L101.142 41.6562ZM89.0792 61V62H89.6341L89.9278 61.5291L89.0792 61ZM78.8917 61L79.7375 61.5335L96.2375 35.3773L95.3917 34.8438L94.5459 34.3102L78.0459 60.4665L78.8917 61ZM95.3917 34.8438L94.4292 34.5727L92.2729 42.2289L93.2355 42.5L94.198 42.7711L96.3543 35.1148L95.3917 34.8438ZM93.2355 42.5H94.2355V38.1875H93.2355H92.2355V42.5H93.2355ZM93.2355 38.1875L94.0779 37.6487L79.8279 15.3675L78.9855 15.9062L78.143 16.445L92.393 38.7263L93.2355 38.1875ZM78.9855 15.9062V16.9062H90.0792V15.9062V14.9062H78.9855V15.9062ZM90.0792 15.9062L89.2181 16.4146L98.8118 32.6646L99.673 32.1562L100.534 31.6479L90.9403 15.3979L90.0792 15.9062ZM99.673 32.1562V33.1562H104.017V32.1562V31.1562H99.673V32.1562ZM104.017 32.1562L103.504 31.2976L97.3792 34.9538L97.8917 35.8125L98.4043 36.6712L104.529 33.0149L104.017 32.1562ZM97.8917 35.8125L98.7547 36.3178L110.411 16.4116L109.548 15.9062L108.685 15.4009L97.0288 35.3072L97.8917 35.8125ZM109.548 15.9062V16.9062H120.079V15.9062V14.9062H109.548V15.9062ZM120.079 15.9062L119.244 15.3561L104.463 37.7936L105.298 38.3438L106.133 38.8939L120.914 16.4564L120.079 15.9062ZM105.298 38.3438H104.298V42.6875H105.298H106.298V38.3438H105.298ZM105.298 42.6875L106.258 42.4092L104.04 34.7529L103.079 35.0312L102.119 35.3096L104.337 42.9658L105.298 42.6875ZM103.079 35.0312L102.24 35.5747L119.052 61.5435L119.892 61L120.731 60.4565L103.919 34.4878L103.079 35.0312ZM119.892 61V60H109.142V61V62H119.892V61ZM109.142 61L109.989 60.4691L100.083 44.6566L99.2355 45.1875L98.388 45.7184L108.294 61.5309L109.142 61ZM99.2355 45.1875V44.1875H94.8917V45.1875V46.1875H99.2355V45.1875ZM94.8917 45.1875L95.3836 46.0581L101.634 42.5269L101.142 41.6562L100.65 40.7856L94.3998 44.3169L94.8917 45.1875ZM101.142 41.6562L100.293 41.1271L88.2307 60.4709L89.0792 61L89.9278 61.5291L101.99 42.1854L101.142 41.6562ZM89.0792 61V60H78.8917V61V62H89.0792V61Z" fill="white" mask="url(#path-1-outside-1_34_87)"/>
<mask id="path-3-outside-2_34_87" maskUnits="userSpaceOnUse" x="40.8219" y="14" width="46" height="49" fill="black">
<rect fill="white" x="40.8219" y="14" width="46" height="49"/>
<path d="M63.9156 61.7812C59.4573 61.7812 55.5927 60.8333 52.3219 58.9375C49.0719 57.0417 46.5615 54.3542 44.7906 50.875C43.0406 47.375 42.1656 43.2396 42.1656 38.4688V38.4062C42.1656 33.6146 43.0511 29.4792 44.8219 26C46.5927 22.5208 49.1031 19.8438 52.3531 17.9688C55.624 16.0729 59.4781 15.125 63.9156 15.125C68.374 15.125 72.2281 16.0729 75.4781 17.9688C78.7281 19.8646 81.2386 22.5521 83.0094 26.0312C84.7802 29.4896 85.6656 33.6146 85.6656 38.4062V38.4688C85.6656 43.2396 84.7802 47.375 83.0094 50.875C81.2386 54.3542 78.7281 57.0417 75.4781 58.9375C72.249 60.8333 68.3948 61.7812 63.9156 61.7812ZM63.9156 53.7812C66.4156 53.7812 68.5719 53.1562 70.3844 51.9062C72.1969 50.6354 73.5927 48.8542 74.5719 46.5625C75.5511 44.2708 76.0406 41.5729 76.0406 38.4688V38.4062C76.0406 35.2604 75.5406 32.5521 74.5406 30.2812C73.5615 27.9896 72.1552 26.2292 70.3219 25C68.5094 23.75 66.374 23.125 63.9156 23.125C61.4573 23.125 59.3115 23.7396 57.4781 24.9688C55.6656 26.1979 54.2594 27.9583 53.2594 30.25C52.2802 32.5208 51.7906 35.2396 51.7906 38.4062V38.4688C51.7906 41.5938 52.2802 44.3021 53.2594 46.5938C54.2594 48.8854 55.6656 50.6562 57.4781 51.9062C59.2906 53.1562 61.4365 53.7812 63.9156 53.7812Z"/>
</mask>
<path d="M63.9156 61.7812C59.4573 61.7812 55.5927 60.8333 52.3219 58.9375C49.0719 57.0417 46.5615 54.3542 44.7906 50.875C43.0406 47.375 42.1656 43.2396 42.1656 38.4688V38.4062C42.1656 33.6146 43.0511 29.4792 44.8219 26C46.5927 22.5208 49.1031 19.8438 52.3531 17.9688C55.624 16.0729 59.4781 15.125 63.9156 15.125C68.374 15.125 72.2281 16.0729 75.4781 17.9688C78.7281 19.8646 81.2386 22.5521 83.0094 26.0312C84.7802 29.4896 85.6656 33.6146 85.6656 38.4062V38.4688C85.6656 43.2396 84.7802 47.375 83.0094 50.875C81.2386 54.3542 78.7281 57.0417 75.4781 58.9375C72.249 60.8333 68.3948 61.7812 63.9156 61.7812ZM63.9156 53.7812C66.4156 53.7812 68.5719 53.1562 70.3844 51.9062C72.1969 50.6354 73.5927 48.8542 74.5719 46.5625C75.5511 44.2708 76.0406 41.5729 76.0406 38.4688V38.4062C76.0406 35.2604 75.5406 32.5521 74.5406 30.2812C73.5615 27.9896 72.1552 26.2292 70.3219 25C68.5094 23.75 66.374 23.125 63.9156 23.125C61.4573 23.125 59.3115 23.7396 57.4781 24.9688C55.6656 26.1979 54.2594 27.9583 53.2594 30.25C52.2802 32.5208 51.7906 35.2396 51.7906 38.4062V38.4688C51.7906 41.5938 52.2802 44.3021 53.2594 46.5938C54.2594 48.8854 55.6656 50.6562 57.4781 51.9062C59.2906 53.1562 61.4365 53.7812 63.9156 53.7812Z" fill="white"/>
<path d="M52.3219 58.9375L51.818 59.8013L51.8204 59.8027L52.3219 58.9375ZM44.7906 50.875L43.8962 51.3222L43.8994 51.3286L44.7906 50.875ZM44.8219 26L43.9307 25.5464L44.8219 26ZM52.3531 17.9688L52.8529 18.8349L52.8546 18.8339L52.3531 17.9688ZM83.0094 26.0312L82.1182 26.4849L82.1193 26.487L83.0094 26.0312ZM83.0094 50.875L83.9006 51.3286L83.9017 51.3265L83.0094 50.875ZM75.4781 58.9375L74.9743 58.0737L74.9719 58.0751L75.4781 58.9375ZM70.3844 51.9062L70.9522 52.7295L70.9585 52.725L70.3844 51.9062ZM74.5406 30.2812L73.621 30.6742L73.6255 30.6843L74.5406 30.2812ZM70.3219 25L69.7541 25.8233L69.765 25.8306L70.3219 25ZM57.4781 24.9688L56.9213 24.1381L56.9169 24.1411L57.4781 24.9688ZM53.2594 30.25L52.3429 29.8501L52.3411 29.854L53.2594 30.25ZM53.2594 46.5938L52.3398 46.9867L52.3429 46.9937L53.2594 46.5938ZM63.9156 61.7812V60.7812C59.6016 60.7812 55.9165 59.8652 52.8234 58.0723L52.3219 58.9375L51.8204 59.8027C55.269 61.8015 59.313 62.7812 63.9156 62.7812V61.7812ZM52.3219 58.9375L52.8258 58.0737C49.748 56.2784 47.3691 53.7363 45.6819 50.4214L44.7906 50.875L43.8994 51.3286C45.7539 54.9721 48.3958 57.805 51.818 59.8013L52.3219 58.9375ZM44.7906 50.875L45.6851 50.4278C44.0181 47.0938 43.1656 43.1179 43.1656 38.4688H42.1656H41.1656C41.1656 43.3613 42.0632 47.6562 43.8962 51.3222L44.7906 50.875ZM42.1656 38.4688H43.1656V38.4062H42.1656H41.1656V38.4688H42.1656ZM42.1656 38.4062H43.1656C43.1656 33.737 44.0282 29.7639 45.7131 26.4536L44.8219 26L43.9307 25.5464C42.0739 29.1945 41.1656 33.4922 41.1656 38.4062H42.1656ZM44.8219 26L45.7131 26.4536C47.3999 23.1396 49.7776 20.6092 52.8529 18.8349L52.3531 17.9688L51.8534 17.1026C48.4287 19.0783 45.7856 21.9021 43.9307 25.5464L44.8219 26ZM52.3531 17.9688L52.8546 18.8339C55.9484 17.0407 59.6234 16.125 63.9156 16.125V15.125V14.125C59.3329 14.125 55.2995 15.1051 51.8517 17.1036L52.3531 17.9688ZM63.9156 15.125V16.125C68.2299 16.125 71.9034 17.0412 74.9743 18.8325L75.4781 17.9688L75.982 17.105C72.5529 15.1047 68.5181 14.125 63.9156 14.125V15.125ZM75.4781 17.9688L74.9743 18.8325C78.052 20.6279 80.431 23.17 82.1182 26.4849L83.0094 26.0312L83.9006 25.5776C82.0462 21.9342 79.4043 19.1013 75.982 17.105L75.4781 17.9688ZM83.0094 26.0312L82.1193 26.487C83.803 29.7752 84.6656 33.7367 84.6656 38.4062H85.6656H86.6656C86.6656 33.4924 85.7575 29.204 83.8995 25.5755L83.0094 26.0312ZM85.6656 38.4062H84.6656V38.4688H85.6656H86.6656V38.4062H85.6656ZM85.6656 38.4688H84.6656C84.6656 43.1162 83.8034 47.0906 82.1171 50.4235L83.0094 50.875L83.9017 51.3265C85.757 47.6594 86.6656 43.363 86.6656 38.4688H85.6656ZM83.0094 50.875L82.1182 50.4214C80.431 53.7363 78.052 56.2784 74.9743 58.0737L75.4781 58.9375L75.982 59.8013C79.4043 57.805 82.0462 54.9721 83.9006 51.3286L83.0094 50.875ZM75.4781 58.9375L74.9719 58.0751C71.9238 59.8646 68.2519 60.7812 63.9156 60.7812V61.7812V62.7812C68.5378 62.7812 72.5741 61.802 75.9844 59.7999L75.4781 58.9375ZM63.9156 53.7812V54.7812C66.59 54.7812 68.9507 54.1098 70.9521 52.7295L70.3844 51.9062L69.8167 51.083C68.1931 52.2027 66.2413 52.7812 63.9156 52.7812V53.7812ZM70.3844 51.9062L70.9585 52.725C72.9422 51.3342 74.4485 49.3963 75.4915 46.9554L74.5719 46.5625L73.6523 46.1696C72.7369 48.312 71.4516 49.9366 69.8103 51.0875L70.3844 51.9062ZM74.5719 46.5625L75.4915 46.9554C76.535 44.5131 77.0406 41.6758 77.0406 38.4688H76.0406H75.0406C75.0406 41.47 74.5671 44.0286 73.6523 46.1696L74.5719 46.5625ZM76.0406 38.4688H77.0406V38.4062H76.0406H75.0406V38.4688H76.0406ZM76.0406 38.4062H77.0406C77.0406 35.1575 76.5246 32.3052 75.4558 29.8782L74.5406 30.2812L73.6255 30.6843C74.5567 32.799 75.0406 35.3633 75.0406 38.4062H76.0406ZM74.5406 30.2812L75.4602 29.8883C74.4152 27.4424 72.8929 25.5198 70.8788 24.1694L70.3219 25L69.765 25.8306C71.4175 26.9385 72.7078 28.5367 73.6211 30.6742L74.5406 30.2812ZM70.3219 25L70.8896 24.1768C68.891 22.7984 66.5522 22.125 63.9156 22.125V23.125V24.125C66.1958 24.125 68.1278 24.7016 69.7542 25.8232L70.3219 25ZM63.9156 23.125V22.125C61.2824 22.125 58.9378 22.7862 56.9213 24.1382L57.4781 24.9688L58.035 25.7993C59.6852 24.693 61.6322 24.125 63.9156 24.125V23.125ZM57.4781 24.9688L56.9169 24.1411C54.9266 25.4908 53.4075 27.4103 52.3429 29.8501L53.2594 30.25L54.1759 30.6499C55.1113 28.5064 56.4047 26.905 58.0394 25.7964L57.4781 24.9688ZM53.2594 30.25L52.3411 29.854C51.2952 32.2797 50.7906 35.1401 50.7906 38.4062H51.7906H52.7906C52.7906 35.3391 53.2653 32.762 54.1777 30.646L53.2594 30.25ZM51.7906 38.4062H50.7906V38.4688H51.7906H52.7906V38.4062H51.7906ZM51.7906 38.4688H50.7906C50.7906 41.6957 51.296 44.5436 52.3398 46.9867L53.2594 46.5938L54.179 46.2008C53.2645 44.0606 52.7906 41.4918 52.7906 38.4688H51.7906ZM53.2594 46.5938L52.3429 46.9937C53.407 49.4325 54.9245 51.3598 56.9104 52.7295L57.4781 51.9062L58.0459 51.083C56.4068 49.9527 55.1117 48.3384 54.1759 46.1938L53.2594 46.5938ZM57.4781 51.9062L56.9104 52.7295C58.9104 54.1088 61.2602 54.7812 63.9156 54.7812V53.7812V52.7812C61.6127 52.7812 59.6709 52.2037 58.0459 51.083L57.4781 51.9062Z" fill="white" mask="url(#path-3-outside-2_34_87)"/>
<mask id="path-5-outside-3_34_87" maskUnits="userSpaceOnUse" x="2" y="14" width="41" height="48" fill="black">
<rect fill="white" x="2" y="14" width="41" height="48"/>
<path d="M3.75 61V15.9062H12L36.5312 51.1875L28.625 45.2188H32.5625V15.9062H41.9688V61H33.7812L9.21875 25.5L17.125 31.4688H13.1562V61H3.75Z"/>
</mask>
<path d="M3.75 61V15.9062H12L36.5312 51.1875L28.625 45.2188H32.5625V15.9062H41.9688V61H33.7812L9.21875 25.5L17.125 31.4688H13.1562V61H3.75Z" fill="white"/>
<path d="M3.75 61H2.75V62H3.75V61ZM3.75 15.9062V14.9062H2.75V15.9062H3.75ZM12 15.9062L12.821 15.3354L12.5227 14.9062H12V15.9062ZM36.5312 51.1875L35.9287 51.9856L37.3523 50.6166L36.5312 51.1875ZM28.625 45.2188V44.2188H25.6407L28.0225 46.0169L28.625 45.2188ZM32.5625 45.2188V46.2188H33.5625V45.2188H32.5625ZM32.5625 15.9062V14.9062H31.5625V15.9062H32.5625ZM41.9688 15.9062H42.9688V14.9062H41.9688V15.9062ZM41.9688 61V62H42.9688V61H41.9688ZM33.7812 61L32.9589 61.569L33.2571 62H33.7812V61ZM9.21875 25.5L9.82127 24.7019L8.3964 26.069L9.21875 25.5ZM17.125 31.4688V32.4688H20.1093L17.7275 30.6706L17.125 31.4688ZM13.1562 31.4688V30.4688H12.1562V31.4688H13.1562ZM13.1562 61V62H14.1562V61H13.1562ZM3.75 61H4.75V15.9062H3.75H2.75V61H3.75ZM3.75 15.9062V16.9062H12V15.9062V14.9062H3.75V15.9062ZM12 15.9062L11.179 16.4771L35.7102 51.7584L36.5312 51.1875L37.3523 50.6166L12.821 15.3354L12 15.9062ZM36.5312 51.1875L37.1338 50.3894L29.2275 44.4206L28.625 45.2188L28.0225 46.0169L35.9287 51.9856L36.5312 51.1875ZM28.625 45.2188V46.2188H32.5625V45.2188V44.2188H28.625V45.2188ZM32.5625 45.2188H33.5625V15.9062H32.5625H31.5625V45.2188H32.5625ZM32.5625 15.9062V16.9062H41.9688V15.9062V14.9062H32.5625V15.9062ZM41.9688 15.9062H40.9688V61H41.9688H42.9688V15.9062H41.9688ZM41.9688 61V60H33.7812V61V62H41.9688V61ZM33.7812 61L34.6036 60.431L10.0411 24.931L9.21875 25.5L8.3964 26.069L32.9589 61.569L33.7812 61ZM9.21875 25.5L8.61623 26.2981L16.5225 32.2669L17.125 31.4688L17.7275 30.6706L9.82127 24.7019L9.21875 25.5ZM17.125 31.4688V30.4688H13.1562V31.4688V32.4688H17.125V31.4688ZM13.1562 31.4688H12.1562V61H13.1562H14.1562V31.4688H13.1562ZM13.1562 61V60H3.75V61V62H13.1562V61Z" fill="white" mask="url(#path-5-outside-3_34_87)"/>
<mask id="path-7-outside-4_34_87" maskUnits="userSpaceOnUse" x="110.986" y="14" width="42" height="48" fill="black">
<rect fill="white" x="110.986" y="14" width="42" height="48"/>
<path d="M112.736 61V15.9062H122.174V34.2188H142.486V15.9062H151.924V61H142.486V42H122.174V61H112.736Z"/>
</mask>
<path d="M112.736 61V15.9062H122.174V34.2188H142.486V15.9062H151.924V61H142.486V42H122.174V61H112.736Z" fill="white"/>
<path d="M112.736 61H111.736V62H112.736V61ZM112.736 15.9062V14.9062H111.736V15.9062H112.736ZM122.174 15.9062H123.174V14.9062H122.174V15.9062ZM122.174 34.2188H121.174V35.2188H122.174V34.2188ZM142.486 34.2188V35.2188H143.486V34.2188H142.486ZM142.486 15.9062V14.9062H141.486V15.9062H142.486ZM151.924 15.9062H152.924V14.9062H151.924V15.9062ZM151.924 61V62H152.924V61H151.924ZM142.486 61H141.486V62H142.486V61ZM142.486 42H143.486V41H142.486V42ZM122.174 42V41H121.174V42H122.174ZM122.174 61V62H123.174V61H122.174ZM112.736 61H113.736V15.9062H112.736H111.736V61H112.736ZM112.736 15.9062V16.9062H122.174V15.9062V14.9062H112.736V15.9062ZM122.174 15.9062H121.174V34.2188H122.174H123.174V15.9062H122.174ZM122.174 34.2188V35.2188H142.486V34.2188V33.2188H122.174V34.2188ZM142.486 34.2188H143.486V15.9062H142.486H141.486V34.2188H142.486ZM142.486 15.9062V16.9062H151.924V15.9062V14.9062H142.486V15.9062ZM151.924 15.9062H150.924V61H151.924H152.924V15.9062H151.924ZM151.924 61V60H142.486V61V62H151.924V61ZM142.486 61H143.486V42H142.486H141.486V61H142.486ZM142.486 42V41H122.174V42V43H142.486V42ZM122.174 42H121.174V61H122.174H123.174V42H122.174ZM122.174 61V60H112.736V61V62H122.174V61Z" fill="white" mask="url(#path-7-outside-4_34_87)"/>
</svg>
